<?xml version="1.0" standalone="no"?>
<!DOCTYPE svg PUBLIC "-//W3C//DTD SVG 20010904//EN"
 "http://www.w3.org/TR/2001/REC-SVG-20010904/DTD/svg10.dtd">
<svg version="1.0" xmlns="http://www.w3.org/2000/svg"
 width="912.000000pt" height="846.000000pt" viewBox="0 0 912.000000 846.000000"
 preserveAspectRatio="xMidYMid meet">

<g transform="translate(0.000000,846.000000) scale(0.100000,-0.100000)"
fill="#000000" stroke="none">
<path d="M4230 7724 c-19 -2 -80 -8 -135 -14 -502 -53 -1040 -243 -1485 -523
-302 -191 -598 -448 -821 -712 -436 -517 -715 -1135 -810 -1795 -34 -231 -44
-641 -21 -840 42 -366 89 -571 206 -893 144 -396 413 -843 690 -1144 34 -37
76 -83 92 -102 42 -49 275 -255 374 -332 494 -384 1149 -655 1735 -719 55 -6
130 -15 167 -21 87 -12 462 -12 558 0 41 6 118 15 170 21 648 74 1328 374
1845 811 681 577 1136 1412 1235 2269 6 52 15 129 21 170 12 97 12 453 0 550
-6 41 -15 118 -21 170 -12 102 -34 239 -50 308 -27 114 -34 143 -57 222 -206
707 -622 1337 -1187 1793 -127 102 -378 270 -504 338 -53 29 -117 63 -141 76
-81 45 -321 143 -470 193 -233 78 -416 120 -706 161 -76 11 -612 21 -685 13z
m685 -84 c39 -6 99 -15 135 -21 491 -78 971 -266 1385 -542 372 -248 753 -632
980 -987 179 -279 303 -534 400 -825 159 -477 211 -1034 144 -1545 -90 -682
-395 -1350 -843 -1845 -50 -55 -95 -106 -101 -113 -22 -27 -271 -256 -333
-305 -320 -253 -680 -451 -1064 -583 -104 -36 -336 -98 -428 -115 -533 -98
-951 -92 -1475 22 -246 53 -537 158 -780 281 -538 272 -999 682 -1338 1187
-67 100 -203 333 -241 414 -76 163 -188 468 -226 617 -61 241 -81 361 -105
630 -18 208 -18 322 0 530 24 269 44 389 105 630 71 279 218 627 372 884 202
335 417 592 718 857 386 340 890 606 1390 735 197 51 337 77 495 94 55 6 116
12 135 14 70 8 607 -3 675 -14z"/>
<path d="M4275 6771 c-93 -7 -153 -14 -290 -35 -55 -9 -274 -73 -384 -112
-367 -132 -666 -326 -950 -613 -280 -284 -466 -572 -594 -921 -113 -308 -157
-561 -157 -905 0 -336 42 -585 154 -902 42 -120 139 -320 220 -453 97 -159
223 -317 383 -476 229 -229 451 -387 728 -517 113 -53 307 -127 385 -147 19
-5 71 -18 115 -30 118 -31 239 -49 431 -64 143 -11 201 -11 345 0 165 12 322
33 399 53 179 46 215 58 370 114 202 73 474 228 655 372 449 357 773 839 911
1355 42 155 43 161 59 260 32 193 43 420 29 605 -12 161 -33 318 -53 395 -34
132 -55 204 -77 265 -14 39 -34 96 -46 129 -29 84 -130 284 -201 401 -157 257
-404 529 -647 711 -261 196 -557 344 -850 425 -41 11 -100 27 -130 35 -167 45
-561 72 -805 55z m542 -60 c26 -5 82 -15 123 -21 104 -16 274 -62 413 -110
614 -214 1154 -703 1440 -1304 32 -65 57 -121 57 -123 0 -3 18 -53 39 -112 38
-103 88 -293 110 -416 5 -33 16 -91 23 -130 15 -90 15 -549 0 -625 -7 -30 -18
-95 -27 -145 -73 -446 -299 -901 -621 -1250 -143 -156 -214 -221 -349 -320
-220 -162 -428 -276 -659 -360 -115 -42 -327 -98 -436 -115 -41 -6 -97 -17
-125 -23 -68 -14 -553 -14 -625 1 -30 6 -95 18 -145 27 -117 20 -314 73 -439
119 -601 218 -1145 722 -1412 1306 -252 552 -304 1134 -154 1715 103 401 290
747 574 1068 218 245 551 485 876 630 135 60 409 141 565 166 39 7 84 15 100
18 109 22 564 24 672 4z"/>
<path d="M4325 6588 c-86 -16 -194 -75 -261 -142 -74 -75 -119 -164 -139 -277
-40 -227 83 -457 295 -552 72 -32 117 -41 210 -41 131 0 208 26 315 107 81 61
144 149 175 247 22 66 20 261 -3 324 -88 242 -336 383 -592 334z m183 -268
c74 -45 95 -143 46 -216 l-27 -39 28 -77 c15 -43 25 -85 21 -93 -4 -12 -30
-15 -146 -15 -168 0 -166 -1 -126 109 l27 75 -20 27 c-42 56 -43 147 -3 193
51 57 139 73 200 36z"/>
<path d="M3904 5353 c-87 -120 -241 -333 -343 -473 -101 -140 -229 -316 -283
-390 -343 -472 -338 -465 -320 -472 26 -10 101 -9 122 2 11 6 47 50 81 98 82
114 328 454 444 612 50 69 163 224 250 345 87 121 201 277 252 346 51 70 93
132 93 138 0 7 -25 11 -69 11 l-69 0 -158 -217z"/>
<path d="M4676 5562 c-2 -4 54 -89 126 -187 130 -178 179 -247 437 -605 74
-102 157 -216 186 -255 29 -38 121 -164 204 -280 83 -115 158 -218 166 -227
11 -14 30 -18 80 -18 41 0 65 4 65 11 0 14 -22 45 -355 504 -144 198 -291 401
-327 450 -212 295 -367 507 -405 558 l-44 57 -64 0 c-35 0 -66 -4 -69 -8z"/>
<path d="M4195 5081 c-104 -19 -210 -105 -245 -198 -26 -69 -27 -179 -3 -248
25 -70 119 -164 192 -189 60 -21 169 -24 215 -6 29 10 32 8 105 -64 69 -68 80
-75 121 -78 l45 -3 3 -45 c4 -51 13 -60 65 -60 36 0 42 -6 37 -39 -1 -7 1 -24
4 -37 5 -19 14 -23 54 -26 l47 -3 5 -50 5 -50 74 1 c98 2 103 8 95 109 l-7 80
-222 225 -223 225 16 62 c19 70 10 140 -28 218 -60 124 -216 201 -355 176z
m-5 -136 c36 -19 50 -43 50 -88 0 -74 -103 -115 -155 -62 -34 33 -35 102 -2
132 39 36 65 40 107 18z m537 -577 c101 -101 183 -188 183 -194 0 -39 -43 -7
-213 164 -103 103 -187 193 -187 200 0 36 52 -5 217 -170z"/>
<path d="M2599 3991 c-169 -54 -295 -188 -344 -367 -18 -67 -17 -187 4 -264
44 -165 197 -311 371 -356 73 -19 224 -15 275 6 92 38 144 70 196 117 114 106
159 213 159 378 0 157 -42 260 -150 365 -101 99 -208 140 -365 139 -58 0 -110
-6 -146 -18z m239 -258 c49 -37 66 -70 66 -128 0 -40 -5 -62 -22 -84 -27 -37
-27 -47 -2 -113 11 -29 20 -65 20 -80 l0 -28 -145 0 c-113 0 -147 3 -151 13
-3 8 6 44 21 82 29 78 31 98 10 115 -21 17 -38 87 -30 126 7 41 49 92 90 110
39 18 110 12 143 -13z"/>
<path d="M6080 3984 c-156 -32 -293 -134 -365 -274 -129 -250 -20 -569 240
-696 l80 -39 140 0 140 0 80 40 c220 110 336 350 279 577 -44 174 -162 308
-326 369 -53 20 -214 34 -268 23z m170 -269 c74 -38 97 -140 50 -223 l-24 -42
26 -77 c19 -56 23 -81 16 -90 -15 -18 -271 -18 -286 0 -8 9 -3 34 15 89 l25
77 -27 55 c-30 62 -30 114 2 163 39 59 137 82 203 48z"/>
<path d="M3258 3718 c-3 -29 -2 -56 2 -61 3 -4 544 -6 1201 -5 l1194 3 3 58 3
57 -1200 0 -1199 0 -4 -52z"/>
<path d="M3810 2745 l0 -235 25 0 c24 0 24 1 27 103 l3 102 105 5 c97 5 105 7
105 25 0 18 -8 20 -105 25 l-105 5 0 70 0 70 122 3 c125 3 141 9 127 47 -5 12
-32 15 -155 15 l-149 0 0 -235z"/>
<path d="M4237 2966 c-51 -19 -75 -42 -88 -86 -14 -47 2 -102 36 -124 14 -9
48 -23 77 -31 114 -31 129 -37 144 -60 21 -33 11 -73 -22 -85 -48 -19 -131
-12 -183 15 -42 21 -51 22 -61 10 -7 -8 -10 -21 -7 -29 9 -23 99 -60 157 -64
119 -9 190 38 190 125 0 39 -5 50 -33 77 -31 28 -95 56 -131 56 -30 0 -104 39
-111 59 -8 27 19 77 47 85 45 12 104 6 143 -14 38 -19 41 -19 52 -3 19 26 17
29 -39 57 -58 29 -112 33 -171 12z"/>
<path d="M4624 2970 c-51 -16 -94 -72 -94 -123 0 -74 34 -103 158 -133 82 -20
112 -42 112 -84 0 -67 -116 -86 -213 -35 -47 24 -52 25 -63 10 -18 -25 -9 -39
44 -64 56 -28 155 -38 205 -22 77 26 113 99 82 165 -24 50 -39 58 -185 96 -57
15 -80 36 -80 71 0 64 103 91 185 49 34 -17 41 -18 54 -6 48 48 -108 106 -205
76z"/>
<path d="M4930 2746 l0 -236 161 0 160 0 -3 28 -3 27 -127 3 -128 3 -2 202 -3
202 -27 3 -28 3 0 -235z"/>
<path d="M1972 6187 c-20 -22 -21 -29 -15 -142 l6 -120 -130 123 c-72 67 -135
122 -141 122 -6 0 -18 -10 -26 -21 -14 -21 -8 -29 180 -212 107 -104 206 -198
220 -210 l26 -20 21 22 21 21 -79 80 c-59 60 -75 80 -60 80 11 0 75 -5 142
-12 l123 -12 25 24 c14 13 22 27 18 31 -6 5 -245 39 -278 39 -3 0 -5 42 -5 93
0 93 -6 137 -19 137 -4 0 -17 -10 -29 -23z"/>
<path d="M1679 5797 c-80 -52 -102 -177 -45 -251 50 -67 177 -122 249 -110 46
7 104 55 123 101 8 18 14 55 14 82 0 39 -4 53 -19 61 -35 18 -44 13 -37 -26
15 -79 -34 -144 -108 -144 -52 0 -136 40 -171 82 -44 52 -27 127 40 168 40 25
43 35 16 50 -25 13 -23 14 -62 -13z"/>
<path d="M7405 5377 c-171 -77 -251 -118 -253 -129 -3 -18 95 -245 110 -254
14 -9 48 6 48 21 0 7 -18 52 -40 100 -22 48 -40 90 -40 95 0 4 102 53 228 110
125 56 231 105 235 109 10 10 -13 61 -27 61 -6 0 -123 -51 -261 -113z"/>
<path d="M1525 5383 c-36 -9 -75 -56 -90 -107 -28 -92 -16 -166 27 -166 19 0
20 4 15 43 -7 53 9 120 35 143 20 19 93 23 110 6 6 -6 3 -30 -6 -63 -29 -95
-18 -173 29 -203 93 -61 201 11 192 129 -2 28 -7 58 -11 67 -6 14 -3 17 21 15
23 -2 29 2 31 23 3 24 -3 27 -135 68 -147 45 -186 53 -218 45z m210 -118 c83
-34 71 -178 -15 -178 -49 0 -74 35 -67 93 7 56 23 100 37 100 6 0 26 -7 45
-15z"/>
<path d="M1355 4950 l-7 -51 -57 3 -56 3 0 -30 c0 -28 3 -30 48 -39 48 -8 49
-9 43 -41 -6 -28 -3 -35 14 -40 27 -9 40 1 40 31 0 30 8 30 135 4 194 -40 244
-23 253 83 4 50 2 55 -19 60 -36 10 -37 9 -36 -27 1 -46 -18 -66 -62 -66 -53
1 -246 44 -244 55 0 6 4 31 8 58 l7 47 -30 0 c-29 0 -30 -3 -37 -50z"/>
<path d="M7343 4973 c-31 -6 -71 -57 -79 -99 -8 -45 9 -104 42 -144 l26 -30
-26 0 c-22 0 -26 -4 -26 -30 0 -35 -17 -33 184 -20 170 12 206 24 231 77 37
78 -1 235 -57 241 -33 4 -35 -6 -8 -59 12 -22 21 -60 22 -85 1 -56 -22 -83
-81 -94 -47 -8 -45 -10 -55 87 -6 63 -31 119 -61 139 -25 17 -78 25 -112 17z
m100 -92 c18 -17 42 -136 31 -153 -3 -4 -25 -8 -49 -8 -37 0 -47 5 -74 35 -23
27 -31 45 -31 75 0 71 72 101 123 51z"/>
<path d="M1317 4642 c-9 -10 -21 -40 -28 -67 -21 -96 29 -171 113 -169 46 2
71 24 131 119 37 58 72 70 106 36 28 -28 27 -77 -4 -135 -14 -26 -25 -49 -25
-52 0 -2 13 -4 30 -4 40 0 70 57 70 135 0 67 -20 109 -60 130 -69 36 -123 10
-178 -85 -43 -75 -78 -96 -112 -65 -26 24 -27 89 0 130 14 22 16 31 7 37 -19
12 -33 9 -50 -10z"/>
<path d="M7267 4544 c-15 -15 -7 -53 13 -59 29 -9 25 -17 -17 -40 -93 -50
-103 -187 -19 -258 68 -57 187 -94 255 -78 93 20 146 124 111 215 -5 14 -6 26
-1 26 4 0 58 -18 120 -40 l112 -40 9 26 c6 14 10 29 10 33 0 5 -386 152 -576
218 -5 2 -13 0 -17 -3z m180 -131 c81 -28 105 -53 118 -119 7 -38 -14 -87 -44
-104 -55 -29 -189 7 -240 66 -51 58 -34 125 41 163 24 11 45 21 46 21 2 0 38
-12 79 -27z"/>
<path d="M1080 4246 l0 -36 78 0 c43 0 181 -3 305 -7 l227 -6 0 31 c0 17 -3
33 -7 35 -5 3 -142 8 -305 12 l-298 7 0 -36z"/>
<path d="M1380 4059 c-118 -5 -234 -12 -257 -15 -40 -5 -43 -7 -43 -36 l0 -31
218 7 c119 3 257 9 305 13 l88 6 -3 31 c-3 29 -5 31 -48 32 -25 1 -142 -3
-260 -7z"/>
<path d="M1485 3841 l-190 -36 -3 -33 c-4 -40 -2 -40 166 -8 l123 23 40 -29
c61 -44 74 -90 36 -134 -21 -24 -43 -31 -173 -58 -145 -31 -149 -32 -146 -56
1 -14 6 -28 10 -32 11 -11 267 39 319 62 92 41 99 161 13 233 -37 31 -37 37
-4 37 22 0 25 4 22 32 -2 17 -7 32 -13 34 -5 1 -95 -15 -200 -35z"/>
<path d="M1531 3323 l-21 -18 50 -80 c27 -44 50 -85 50 -90 0 -10 -159 -110
-164 -103 -2 1 -27 41 -56 88 -28 47 -53 87 -55 88 -9 10 -45 -12 -45 -26 1
-28 136 -237 153 -236 30 3 467 278 467 295 0 9 -8 23 -17 32 -17 14 -25 11
-116 -44 -54 -32 -102 -59 -106 -59 -5 0 -32 38 -60 85 -29 47 -54 85 -56 85
-1 0 -12 -8 -24 -17z"/>
</g>
</svg>
